# xmcd CD database file
#
# Track frame offsets:
#	150
#	19400
#	36590
#	54290
#	69868
#	88675
#	107640
#	125095
#	142963
#	162455
#	183758
#	202770
#	221500
#	231960
#	248038
#
# Disc length: 3618 seconds
#
# Revision: 0
# Processed by: cddbd v1.5.1PL2 Copyright (c) Steve Scherf et al.
# Submitted via: CDex 1.51
#
DISCID=ce0e200f
DTITLE=ブレッド＆バター - SHONAN BOYS
DYEAR=1900
DGENRE=J-pop
TTITLE0=HAPPIER THAN THE MORNING SUN
TTITLE1=HERE I AM AGAIN
TTITLE2=渚に行こう
TTITLE3=SHONAN GIRL
TTITLE4=あの頃のまま
TTITLE5=HOTEL PACIFIC
TTITLE6=海岸線
TTITLE7=FINE LINE
TTITLE8=愛したい 信じたい
TTITLE9=LET US LOVE
TTITLE10=REMEMBER MY LOVE
TTITLE11=マリエ
TTITLE12=DEVOTED TO YOU
TTITLE13=風
TTITLE14=PINK SHADOW
EXTD=
EXTT0=
EXTT1=
EXTT2=
EXTT3=
EXTT4=
EXTT5=
EXTT6=
EXTT7=
EXTT8=
EXTT9=
EXTT10=
EXTT11=
EXTT12=
EXTT13=
EXTT14=
PLAYORDER=
